# xmcd
#
# Track frame offsets:
#	150
#	13780
#	33363
#	48723
#	59686
#	76566
#	92523
#	110723
#	126743
#	140643
#	153463
#	164171
#	178303
#	193261
#	208898
#
# Disc length: 3071
#
# Revision: 2
# Processed by: cddbd v1.5.1PL0 Copyright (c) Steve Scherf et al.
# Submitted via: audiograbber 1.83.01
# Normalized: r1:DSETVAR1
#
DISCID=e90bfd0f
DTITLE=Various Artist - NuTech
DYEAR=1900
DGENRE=various
TTITLE0=LeAnne Rimes - Blue
TTITLE1=Garth Brooks - Friends In Low Places
TTITLE2=Billy Ray Cyrus - Achy Breaky Heart
TTITLE3=Alan Jackson - Chatahoochie
TTITLE4=Alabama - Mountain Music
TTITLE5=Willie Nelson and Julio Iglesias - Girl's Ive Loved Before
TTITLE6=Crystal Gayle and Eddie Rabbit - You  And I
TTITLE7=Garth Brooks - The Dance
TTITLE8=Dwight Yoakam - Guitars, Cadillacs
TTITLE9=Hank Williams - Your Cheatin' Heart
TTITLE10=Conway Twitty - It's Only Make Believe
TTITLE11=Hank Williams - Hey Good Lookin'
TTITLE12=Shania Twain - You're Still The One
TTITLE13=Brooks and Dunn - Boot Scootin' Boogie
TTITLE14=Alanna Myles - Black Velvet
EXTD=
EXTT0=
EXTT1=
EXTT2=
EXTT3=
EXTT4=
EXTT5=
EXTT6=
EXTT7=
EXTT8=
EXTT9=
EXTT10=
EXTT11=
EXTT12=
EXTT13=
EXTT14=
PLAYORDER=
